<?xml version="1.0" encoding="UTF-8"?><svg id="uuid-bf83b331-5796-4b9b-b847-ebcf3a463f2a" xmlns="http://www.w3.org/2000/svg" viewBox="0 0 500 500"><circle cx="250" cy="250" r="245" style="fill:#002145; stroke-width:0px;"/><path d="M406.51,171.37c-3.76-14.06-14.83-25.12-28.88-28.88-25.47-6.83-127.63-6.83-127.63-6.83,0,0-102.15,0-127.63,6.83-14.06,3.76-25.12,14.83-28.88,28.88-6.83,25.47-6.83,78.63-6.83,78.63,0,0,0,53.15,6.83,78.63,3.76,14.05,14.83,25.12,28.88,28.88,25.47,6.83,127.63,6.83,127.63,6.83,0,0,102.15,0,127.63-6.83,14.06-3.76,25.12-14.83,28.88-28.88,6.83-25.48,6.83-78.63,6.83-78.63,0,0,0-53.15-6.83-78.63ZM217.33,299v-98l84.87,49-84.87,49Z" style="fill:#fff; stroke-width:0px;"/></svg>