<?xml version="1.0" encoding="UTF-8"?><svg id="uuid-5ae71e45-be19-47d8-9854-69556d45eacb" xmlns="http://www.w3.org/2000/svg" viewBox="0 0 500 500"><path d="M250,5C114.69,5,5,114.69,5,250s109.69,245,245,245,245-109.68,245-245S385.31,5,250,5ZM362.36,358.38c-4.4,7.22-13.8,9.48-21,5.08-57.53-35.16-129.95-43.1-215.23-23.62-8.22,1.88-16.41-3.27-18.28-11.48-1.88-8.22,3.25-16.41,11.48-18.28,93.33-21.34,173.38-12.15,237.96,27.31,7.2,4.4,9.47,13.8,5.07,21ZM392.34,291.66c-5.54,8.99-17.3,11.81-26.27,6.29-65.84-40.47-166.24-52.2-244.13-28.55-10.1,3.05-20.77-2.64-23.84-12.73-3.04-10.1,2.65-20.75,12.74-23.82,88.98-27,199.6-13.92,275.22,32.55,8.98,5.53,11.8,17.29,6.28,26.26ZM394.92,222.2c-78.97-46.9-209.24-51.21-284.63-28.33-12.11,3.67-24.91-3.16-28.58-15.27-3.67-12.11,3.16-24.91,15.27-28.59,86.54-26.27,230.41-21.2,321.32,32.77,10.89,6.46,14.46,20.53,8.01,31.4-6.46,10.89-20.53,14.48-31.4,8.01Z" style="fill:#002145; stroke-width:0px;"/><path d="M362.36,358.38c-4.4,7.22-13.8,9.48-21,5.08-57.53-35.16-129.95-43.1-215.23-23.62-8.22,1.88-16.41-3.27-18.28-11.48-1.88-8.22,3.25-16.41,11.48-18.28,93.33-21.34,173.38-12.15,237.96,27.31,7.2,4.4,9.47,13.8,5.07,21Z" style="fill:#fff; stroke-width:0px;"/><path d="M392.34,291.66c-5.54,8.99-17.3,11.81-26.27,6.29-65.84-40.47-166.24-52.2-244.13-28.55-10.1,3.05-20.77-2.64-23.84-12.73-3.04-10.1,2.65-20.75,12.74-23.82,88.98-27,199.6-13.92,275.22,32.55,8.98,5.53,11.8,17.29,6.28,26.26Z" style="fill:#fff; stroke-width:0px;"/><path d="M394.92,222.2c-78.97-46.9-209.24-51.21-284.63-28.33-12.11,3.67-24.91-3.16-28.58-15.27-3.67-12.11,3.16-24.91,15.27-28.59,86.54-26.27,230.41-21.2,321.32,32.77,10.89,6.46,14.46,20.53,8.01,31.4-6.46,10.89-20.53,14.48-31.4,8.01Z" style="fill:#fff; stroke-width:0px;"/></svg>