<?xml version="1.0" encoding="UTF-8"?><svg id="uuid-d4836995-41e4-491f-95a4-a3faa8c69c61" xmlns="http://www.w3.org/2000/svg" viewBox="0 0 500 500"><circle cx="250" cy="250" r="245" style="fill:#002145; stroke-width:0px;"/><path d="M200.5,391.1c119.66,0,185.1-99.14,185.1-185.1,0-2.82-.06-5.62-.19-8.41,12.7-9.18,23.74-20.64,32.45-33.68-11.66,5.18-24.2,8.67-37.36,10.24,13.43-8.05,23.74-20.8,28.61-35.99-12.57,7.45-26.49,12.87-41.31,15.79-11.87-12.64-28.78-20.55-47.49-20.55-35.93,0-65.07,29.14-65.07,65.05,0,5.11.57,10.07,1.69,14.83-54.07-2.72-102.01-28.61-134.09-67.97-5.59,9.61-8.81,20.78-8.81,32.7,0,22.57,11.49,42.5,28.95,54.15-10.67-.33-20.7-3.26-29.46-8.14-.01.27-.01.54-.01.83,0,31.51,22.43,57.81,52.19,63.78-5.46,1.49-11.21,2.29-17.15,2.29-4.19,0-8.27-.41-12.23-1.17,8.28,25.85,32.3,44.66,60.78,45.19-22.27,17.45-50.32,27.85-80.8,27.85-5.25,0-10.43-.3-15.52-.9,28.79,18.45,62.98,29.22,99.72,29.22" style="fill:#fff; stroke-width:0px;"/></svg>