<?xml version="1.0" encoding="UTF-8"?><svg id="uuid-e83b383d-ddba-4291-9cff-fcdfac297830" xmlns="http://www.w3.org/2000/svg" viewBox="0 0 500 500"><path d="M495,250c0-135.31-109.69-245-245-245S5,114.69,5,250c0,122.29,89.59,223.64,206.72,242.02v-171.2h-62.21v-70.82h62.21v-53.98c0-61.4,36.58-95.32,92.54-95.32,26.81,0,54.84,4.78,54.84,4.78v60.29h-30.89c-30.43,0-39.93,18.89-39.93,38.26v45.96h67.95l-10.86,70.82h-57.09v171.2c117.13-18.38,206.72-119.74,206.72-242.02Z" style="fill:#002145; stroke-width:0px;"/><path d="M345.37,320.82l10.86-70.82h-67.95v-45.96c0-19.38,9.49-38.26,39.93-38.26h30.89v-60.29s-28.04-4.78-54.84-4.78c-55.96,0-92.54,33.92-92.54,95.32v53.98h-62.21v70.82h62.21v171.2c12.47,1.96,25.26,2.98,38.28,2.98s25.81-1.02,38.28-2.98v-171.2h57.09Z" style="fill:#fff; stroke-width:0px;"/></svg>