<?xml version="1.0" encoding="UTF-8"?><svg id="uuid-b7bc3f3b-e65b-453c-b2a4-8a97b6420992" xmlns="http://www.w3.org/2000/svg" viewBox="0 0 500 500"><circle cx="250" cy="250" r="245" style="fill:#002145; stroke-width:0px;"/><path d="M280.24,282.27c-6.27-6.61-17.27-10.86-30.27-10.86s-24.01,4.24-30.28,10.86c-3.21,3.22-5.18,7.49-5.54,12.03-1.07,9.76-.47,18.17.67,31.6,1.08,12.8,3.15,29.89,5.85,47.27,1.92,12.37,3.49,19.05,4.9,23.84,2.3,7.74,10.91,14.53,24.38,14.53s22.07-6.77,24.38-14.53c1.42-4.78,2.99-11.45,4.9-23.84,2.71-17.39,4.78-34.45,5.86-47.27,1.14-13.43,1.73-21.84.67-31.6-.35-4.54-2.31-8.8-5.54-12.03ZM215.81,223.37c0,18.89,15.31,34.19,34.19,34.19s34.19-15.31,34.19-34.19-15.31-34.19-34.19-34.19-34.19,15.31-34.19,34.19ZM249.57,88.45c-79.95.22-145.47,65.09-146.46,145.04-.8,64.77,40.54,120.17,98.27,140.47,1.03.36,2.16-.18,2.52-1.22.1-.3.13-.62.09-.93-.77-5.03-1.48-10.07-2.13-15.05-.22-1.75-1.35-3.26-2.96-3.97-47.13-20.57-77.43-67.28-76.99-118.7.67-69.56,57.48-126.27,127.04-126.83,71.11-.58,129.17,57.12,129.17,128.1-.06,50.98-30.28,97.08-77.01,117.45-1.61.71-2.74,2.22-2.97,3.97-.66,5.02-1.37,10.03-2.13,15.04-.17,1.07.56,2.07,1.63,2.23.33.05.65.02.96-.09,57.18-20.11,98.29-74.65,98.29-138.62,0-81.13-66.13-147.11-147.33-146.88ZM246.92,155.85c43.98-1.69,81,32.59,82.69,76.57.04.99.06,1.98.06,2.97,0,21.99-9.1,43-25.17,58.02-1.31,1.23-2.01,2.98-1.92,4.78.3,5.46.19,10.78-.17,16.77-.06,1.07.76,1.99,1.83,2.04.42.03.84-.09,1.19-.32,26.91-18.32,43.01-48.75,43.02-81.3-.06-54.4-44.19-98.45-98.59-98.4-1.24,0-2.48.03-3.71.08-52.07,2.01-93.85,44.94-94.5,97.06-.42,33,15.74,64.01,43.02,82.59.87.6,2.07.38,2.67-.5.24-.36.36-.79.33-1.22-.4-5.59-.46-11.19-.17-16.79.1-1.8-.61-3.55-1.92-4.78-16.61-15.52-25.76-37.44-25.13-60.16,1.26-41.86,34.63-75.63,76.47-77.4Z" style="fill:#fff; stroke-width:0px;"/></svg>