<?xml version="1.0" encoding="UTF-8"?>
<svg id="a" data-name="Layer 1" xmlns="http://www.w3.org/2000/svg" width="500" height="500" viewBox="0 0 500 500">
  <circle cx="250" cy="250" r="245" style="fill: #002145;"/>
  <path d="M250.01,65.3c-101.85,0-184.7,82.85-184.7,184.7s82.85,184.7,184.7,184.7,184.69-82.85,184.69-184.7-82.85-184.7-184.69-184.7ZM329.97,242.24h-72.22v-65.17c21.52-.13,44.32-1.42,67.87-4.45,2.83,20.54,4.66,44,4.35,69.62ZM257.75,161.3v-80.31c16.86.76,33.08,4.01,48.31,9.37,3.6,9.83,11.43,33.47,17.16,66.79-22.64,2.84-44.66,4.05-65.48,4.14ZM242.24,161.16c-24.49-.53-47-2.51-66.49-5.01,5.62-32.22,13.16-55.27,16.8-65.29,15.63-5.66,32.32-9.08,49.69-9.86v80.16ZM242.24,176.96v65.28h-73.41c-.32-25.97,1.57-49.73,4.47-70.47,20.15,2.63,43.49,4.69,68.94,5.19ZM153.38,242.24h-72.38c1.38-30.4,10.81-58.73,26.22-82.91,10.26,2.63,27.85,6.67,50.79,10.25-2.99,21.42-4.94,45.91-4.63,72.66ZM153.81,257.75c.94,21.34,3.39,43.94,7.9,67.43-18.57,2.84-37.52,6.79-56.59,12.11-14.17-23.42-22.81-50.54-24.13-79.54h72.82ZM169.29,257.75h72.96v61.23c-20.69.11-42.58,1.31-65.16,4.08-4.43-22.75-6.84-44.64-7.79-65.32ZM242.24,334.76v84.24c-13.36-.61-26.32-2.76-38.7-6.3l.94-.4c-10.76-25.18-18.58-49.94-24.13-73.87,21.38-2.51,42.17-3.59,61.89-3.67ZM257.75,334.91c22.04.49,42.46,2.15,60.52,4.31-5.53,23.69-13.31,48.18-23.95,73.09l1.4.6c-12.16,3.42-24.88,5.5-37.98,6.1v-84.09ZM257.75,319.1v-61.35h71.77c-.96,20.86-3.41,42.97-7.91,65.94-18.95-2.33-40.5-4.12-63.85-4.59ZM344.99,257.75h74c-1.32,29.02-9.97,56.16-24.16,79.6-10.38-2.73-30.68-7.55-57.86-11.57,4.59-23.7,7.07-46.5,8.01-68.03ZM345.42,242.24c.3-26.41-1.59-50.62-4.52-71.84,17.04-2.71,34.38-6.35,51.83-11.15,15.43,24.19,24.88,52.55,26.26,82.98h-73.57ZM383.16,145.76c-14.98,3.9-29.91,6.93-44.64,9.24-4.12-24.12-9.33-43.46-13.41-56.57,22.7,11.3,42.53,27.54,58.05,47.32ZM173.46,99.14c-4,12.9-9,31.62-13.02,54.85-18.46-2.83-33.36-5.96-43.53-8.34,15.18-19.32,34.48-35.26,56.55-46.51ZM114.27,350.89c17.01-4.52,33.97-7.93,50.66-10.41,4.88,21.39,11.52,43.42,20.35,65.83-28.38-11.79-52.88-31.09-71.01-55.41ZM313.3,406.89c8.83-22.34,15.5-44.31,20.4-65.64,22.9,3.31,40.84,7.17,51.88,9.84-18.41,24.64-43.38,44.1-72.28,55.8Z" style="fill: #fff;"/>
</svg>