<?xml version="1.0" encoding="UTF-8"?><svg id="uuid-18856eae-e87b-4ee2-97bb-91555f360c0b" xmlns="http://www.w3.org/2000/svg" viewBox="0 0 500 500"><circle cx="250" cy="250" r="245" style="fill:#002145; stroke-width:0px;"/><path d="M51.03,249.83l-2.48,22.31,2.48,22.31c0,1.24,1.24,1.24,1.24,1.24,1.24,0,1.24-1.24,1.24-1.24l3.72-22.31-3.72-22.31c0-1.24-1.24-1.24-1.24-1.24,0,0-1.24,0-1.24,1.24M65.91,236.19l-3.72,35.95,3.72,35.95c0,1.24,1.24,1.24,1.24,1.24,1.24,0,1.24-1.24,1.24-1.24l4.96-35.95-4.96-35.95c0-1.24-1.24-1.24-1.24-1.24h0l-1.24,1.24M113.02,231.23l-2.48,40.91,2.48,43.39c0,1.24,1.24,2.48,2.48,2.48s2.48-1.24,2.48-2.48l4.96-43.39-3.72-40.91c0-1.24-1.24-2.48-2.48-2.48-2.48,0-3.72,1.24-3.72,2.48M82.03,228.75l-3.72,43.39,3.72,40.91c0,1.24,1.24,2.48,2.48,2.48,0,0,1.24-1.24,1.24-2.48l3.72-40.91-3.72-43.39c0-1.24-1.24-2.48-2.48-2.48,0,1.24-1.24,1.24-1.24,2.48M96.9,227.51l-3.72,44.63,3.72,42.15c0,1.24,1.24,2.48,2.48,2.48s2.48-1.24,2.48-2.48l3.72-42.15-3.72-44.63c0-1.24-1.24-2.48-2.48-2.48s-1.24,1.24-2.48,2.48M129.13,205.2l-3.72,66.94,3.72,43.39c0,1.24,1.24,2.48,2.48,2.48,2.48,0,3.72-1.24,3.72-2.48l3.72-43.39-3.72-66.94c0-1.24-1.24-2.48-2.48-2.48-2.48,0-3.72,1.24-3.72,2.48M145.25,190.32l-2.48,81.82,2.48,43.39c0,2.48,1.24,3.72,3.72,3.72,1.24,0,3.72-1.24,3.72-3.72l3.72-43.39-3.72-81.82c0-2.48-1.24-3.72-3.72-3.72s-3.72,1.24-3.72,3.72M210.95,186.6l-2.48,85.54,2.48,40.91c0,2.48,2.48,4.96,4.96,4.96s4.96-2.48,4.96-4.96l2.48-40.91-2.48-86.78c0-2.48-2.48-4.96-4.96-4.96-3.72,1.24-4.96,2.48-4.96,6.2M161.36,182.89l-2.48,89.26,2.48,42.15c0,2.48,1.24,3.72,3.72,3.72s3.72-1.24,3.72-3.72l2.48-42.15-2.48-89.26c0-2.48-1.24-3.72-3.72-3.72s-3.72,2.48-3.72,3.72M193.6,182.89l-2.48,89.26,2.48,42.15c0,2.48,2.48,4.96,4.96,4.96s4.96-2.48,4.96-4.96l2.48-42.15-2.48-89.26c0-2.48-2.48-4.96-4.96-4.96s-4.96,2.48-4.96,4.96M177.48,180.41l-2.48,91.73,2.48,42.15c0,2.48,1.24,3.72,3.72,3.72s3.72-1.24,3.72-3.72l2.48-42.15-2.48-91.73c0-2.48-2.48-3.72-3.72-3.72s-3.72,1.24-3.72,3.72M227.07,169.25l-2.48,102.89,2.48,40.91c0,2.48,2.48,4.96,4.96,4.96s4.96-2.48,4.96-4.96l2.48-40.91-2.48-102.89c0-2.48-2.48-4.96-4.96-4.96s-4.96,2.48-4.96,4.96M244.42,160.57l-2.48,111.57,2.48,40.91c0,2.48,2.48,4.96,4.96,4.96s4.96-2.48,4.96-4.96l2.48-40.91-2.48-111.57c0-2.48-2.48-4.96-4.96-4.96h-1.24c-2.48,0-3.72,2.48-3.72,4.96M264.26,149.41c-3.72,1.24-4.96,2.48-4.96,6.2v157.44c0,2.48,2.48,4.96,4.96,6.2h137.6c27.27,0,49.59-22.31,49.59-49.59s-22.31-49.59-49.59-49.59c-6.2,0-13.64,1.24-18.59,3.72-3.72-44.63-40.91-79.34-86.78-79.34h-6.2c-8.68,0-17.36,2.48-26.03,4.96" style="fill:#fff; stroke-width:0px;"/></svg>