<?xml version="1.0" encoding="UTF-8"?><svg id="uuid-746b538a-56bd-40f6-a1f1-69e8b23aa6eb" xmlns="http://www.w3.org/2000/svg" viewBox="0 0 500 500"><circle cx="250" cy="250" r="245" style="fill:#002145; stroke-width:0px;"/><path d="M334.38,192.21c-.07,6.74-.41,13.46-.91,20.18-.09,1.14-.12,2.29-.13,3.44-.04,2.5,1.39,3.51,3.87,3.29.9-.08,1.81-.32,2.67-.62,2.45-.86,4.88-1.77,7.31-2.69,4.07-1.55,8.15-3.09,12.4-4.08,2.85-.67,5.71-1.01,8.63-.34,6.61,1.51,10.03,8.08,7.48,14.37-.67,1.65-1.67,3.09-2.86,4.4-1.7,1.89-3.64,3.5-5.74,4.92-2.47,1.67-4.97,3.3-7.46,4.94-4.15,2.74-8.32,5.45-12.45,8.21-1.71,1.15-3.39,2.36-5.02,3.62-.9.7-1.74,1.5-2.51,2.35-1.55,1.73-2.27,3.78-2.13,6.11.14,2.22.53,4.39,1.15,6.54,1.97,6.88,4.97,13.3,8.64,19.42,6.76,11.28,15.46,20.87,25.64,29.15,8.64,7.03,18.07,12.82,28.06,17.72.89.44,1.76.92,2.62,1.42.66.39,1.23.91,1.68,1.55.67.96.76,1.96.19,3.02-.48.9-1.19,1.58-1.96,2.22-1.13.93-2.39,1.65-3.66,2.35-5.67,3.08-11.69,5.27-17.91,6.95-2.65.72-5.3,1.48-7.93,2.25-1.84.54-3.56,1.35-5.26,2.23-2.87,1.48-4.49,3.85-5.09,6.95-.34,1.72-.54,3.47-.85,5.2-.78,4.36-2.35,5.96-6.64,6.7-1.5.26-3.03.42-4.56.5-3.82.21-7.65.31-11.47.53-8.66.49-17.17,1.82-25.44,4.53-3.5,1.15-6.85,2.64-10.03,4.46-3.38,1.94-6.72,3.96-10.05,5.98-5.3,3.21-10.69,6.25-16.48,8.5-6.46,2.51-13.13,4-20.03,4.62-5.82.53-11.62.45-17.41-.2-8.67-.97-16.88-3.5-24.65-7.48-3.61-1.85-7.09-3.92-10.55-6.03-2.54-1.55-5.1-3.09-7.66-4.61-6.11-3.63-12.71-5.97-19.62-7.47-6.29-1.37-12.66-2.13-19.1-2.38-3.36-.13-6.73-.27-10.09-.47-1.91-.11-3.8-.35-5.66-.84-2.61-.69-4.29-2.27-4.82-4.95-.3-1.5-.53-3.01-.79-4.51-.05-.3-.07-.61-.11-.91-.57-4.01-2.54-6.94-6.32-8.65-2.31-1.04-4.67-1.89-7.1-2.57-4.19-1.17-8.43-2.19-12.53-3.66-3.6-1.29-7.1-2.83-10.46-4.66-1.01-.55-1.98-1.15-2.93-1.8-.63-.43-1.23-.92-1.76-1.47-1.95-2.03-1.79-3.87.45-5.62,1.1-.85,2.36-1.42,3.59-2.02,8.75-4.29,17.03-9.32,24.76-15.26,11.01-8.48,20.44-18.43,27.74-30.31,3.9-6.34,7.08-13.02,9.15-20.19.66-2.28,1.12-4.6,1.21-6.99.09-2.36-.71-4.34-2.27-6.06-.93-1.02-1.99-1.9-3.09-2.73-3.19-2.39-6.5-4.58-9.83-6.76-4.22-2.77-8.46-5.51-12.68-8.27-2.12-1.38-4.15-2.88-5.99-4.62-1.34-1.27-2.53-2.65-3.48-4.24-2-3.34-2.14-6.79-.63-10.33,1.04-2.44,2.85-4.13,5.32-5.1,2.71-1.06,5.52-1.15,8.36-.68,3.33.55,6.53,1.58,9.7,2.72,3.23,1.17,6.43,2.43,9.65,3.64,1.5.57,3.01,1.13,4.6,1.37.38.06.76.17,1.13.16,1.85-.06,3.38-.66,3.37-3.14-.01-2.06-.11-4.13-.25-6.19-.76-11.16-1.05-22.32-.6-33.49.29-7.11,1.03-14.18,2.62-21.15,2.21-9.68,6.23-18.48,12.24-26.42,11.09-14.65,25.73-23.93,43.27-28.87,9.58-2.7,19.37-3.59,29.29-3.28,10.49.33,20.65,2.28,30.43,6.07,9.29,3.61,17.76,8.6,25.06,15.4,9.21,8.58,16.31,18.59,20.16,30.73,1.74,5.49,2.84,11.1,3.52,16.8,1.05,8.84,1.1,17.71,1,26.59Z" style="fill:#fff; stroke-width:0px;"/></svg>