<?xml version="1.0" encoding="UTF-8"?><svg id="uuid-93d57a64-498e-442d-a42a-feeffaa80685" xmlns="http://www.w3.org/2000/svg" viewBox="0 0 500 500"><circle cx="250" cy="250" r="245" style="fill:#002145; stroke-width:0px;"/><path d="M268.96,216.58c4.02-4.52,7.34-9.11,11.47-13.01,12.7-11.97,27.73-18.02,45.28-17.87,9.64.08,19.18.78,28.47,3.47,21.26,6.15,33.62,20.79,39.52,41.56,4.42,15.58,5.24,31.57,5.26,47.62.06,33.84-.1,67.69-.02,101.53,0,3.17-.88,4-4,3.97-17.43-.14-34.87-.15-52.31,0-3.07.03-3.73-.92-3.72-3.82.1-32.2.12-64.41.02-96.61-.03-8.07-.54-16.14-2.8-23.98-4.17-14.45-14.52-21.82-29.66-21.02-20.67,1.09-31.43,11.33-34.06,32.36-.63,5.02-.93,10.05-.92,15.1.03,31.32-.03,62.64.08,93.96.01,3.12-.77,4.04-3.96,4.02-17.56-.16-35.13-.14-52.69-.01-2.82.02-3.63-.74-3.63-3.59.08-62.01.08-124.02,0-186.02,0-3.07,1-3.78,3.9-3.76,16.68.12,33.36.14,50.03,0,3.07-.03,3.86.97,3.79,3.87-.17,7.41-.06,14.82-.06,22.24Z" style="fill:#fdfdfd; stroke-width:0px;"/><path d="M173.43,287.44c0,30.68-.05,61.35.07,92.03.01,3.41-.83,4.44-4.36,4.4-17.43-.19-34.86-.15-52.29-.03-2.79.02-3.64-.68-3.63-3.57.08-62.11.08-124.22.02-186.33,0-2.57.62-3.49,3.35-3.47,17.68.11,35.36.15,53.04-.02,3.4-.03,3.86,1.28,3.85,4.2-.08,30.93-.05,61.86-.05,92.79Z" style="fill:#fdfdfd; stroke-width:0px;"/><path d="M178.23,128.93c.02,19.26-15.62,34.95-34.83,34.96-18.97,0-34.74-15.7-34.8-34.66-.06-19.17,15.69-34.96,34.87-34.94,19.04.02,34.74,15.66,34.76,34.64Z" style="fill:#fdfdfd; stroke-width:0px;"/></svg>