<?xml version="1.0" encoding="UTF-8"?><svg id="uuid-f3def2be-41d6-4cf6-bdf3-9f5e1ee39511" xmlns="http://www.w3.org/2000/svg" viewBox="0 0 500 500"><circle cx="250" cy="250" r="245" style="fill:#002145; stroke-width:0px;"/><path d="M387.28,169.03c0-1.42-.04-1.48-1.53-1.46-3.59.03-7.14-.4-10.67-.93-12.82-1.93-54.4-23.75-61.43-59.42-.14-.7-1.71-9.55-1.69-13.32,0-1.69-.02-1.69-1.69-1.71-.38,0-.77,0-1.15,0-16.27,0-32.54,0-48.81,0-3.28,0-2.82-.41-2.82,2.88,0,70.56,0,141.13,0,211.69,0,2.63-.08,5.26-.54,7.84-2.45,13.65-9.45,24.34-21.28,31.64-10.25,6.32-21.38,8.13-33.2,5.79-3.72-.74-7.22-2.14-10.72-3.53-.28-.26-.57-.52-.85-.77-1.18-.99-2.47-1.8-3.73-2.67-15.06-10.43-22.21-24.91-20.03-43.02,2.21-18.37,12.78-30.84,30.19-37.26,5.19-1.92,10.66-2.71,16.22-2.41,3.58.19,7.14.65,10.6,1.63,1.2.34,1.85-.08,1.91-1.35.02-.45.03-.89.03-1.34,0-12.67-.47-40.34-.54-40.4.03-3.65.02-7.3.09-10.94.02-1.05-.5-1.23-1.39-1.34-6.56-.78-13.13-.93-19.73-.44-9.12.67-17.96,2.54-26.55,5.63-13.7,4.93-25.73,12.55-36.12,22.72-8.92,8.74-15.93,18.84-21.07,30.22-4.92,10.9-7.74,22.33-8.52,34.24-.34,5.16-.27,10.35.2,15.53.66,7.16,2.02,14.17,4.2,21.01,6.26,19.66,17.64,35.79,33.78,48.59,1.64,1.3,3.22,2.73,5.18,3.57,0,0,0,0,0,0,.82.73,1.65,1.46,2.47,2.19,2.61,1.97,5.41,3.65,8.34,5.1,18.08,8.93,37.13,12.56,57.21,10.11,26.05-3.18,47.76-14.73,64.84-34.62,16.08-18.72,23.9-40.7,24.04-65.27.2-35.14.05-70.28.07-105.42,0-.84-.48-2.03.44-2.45.73-.33,1.45.63,2.13,1.08,13.08,8.59,27.18,14.8,42.46,18.3,8.89,2.03,17.87,3.27,27.01,3.25,2.89,0,3.27-.15,3.27-3.01.02-12.48-.64-46.6-.63-49.91Z" style="fill:#fff; stroke-width:0px;"/></svg>