<?xml version="1.0" encoding="UTF-8"?><svg id="uuid-cb45a382-6bf0-4df2-8197-2f9fed161586" xmlns="http://www.w3.org/2000/svg" viewBox="0 0 500 500"><circle cx="250" cy="250" r="245" style="fill:#002145; stroke-width:0px;"/><path d="M377.8,158.51c-41.83-31.37-81.62-30.5-81.62-30.5l-4.07,4.65c49.38,15.1,72.32,36.89,72.32,36.89-30.21-16.56-59.83-24.69-87.43-27.88-20.91-2.32-40.95-1.74-58.67.58-1.74,0-3.19.29-4.94.58-10.17.87-34.85,4.65-65.93,18.3-10.75,4.94-17.14,8.42-17.14,8.42,0,0,24.11-22.95,76.39-38.05l-2.9-3.49s-39.79-.87-81.62,30.5c0,0-41.83,75.81-41.83,169.34,0,0,24.4,42.12,88.59,44.15,0,0,10.75-13.07,19.46-24.11-36.89-11.04-50.83-34.27-50.83-34.27,0,0,2.9,2.03,8.13,4.94.29.29.58.58,1.16.87.87.58,1.74.87,2.61,1.45,7.26,4.07,14.52,7.26,21.2,9.88,11.91,4.65,26.14,9.29,42.7,12.49,21.78,4.07,47.34,5.52,75.23.29,13.65-2.32,27.59-6.39,42.12-12.49,10.17-3.78,21.49-9.29,33.4-17.14,0,0-14.52,23.82-52.57,34.56,8.71,11.04,19.17,23.53,19.17,23.53,64.19-2.03,88.88-44.15,88.88-44.15,0-93.53-41.83-169.34-41.83-169.34ZM195.68,300.83c-16.27,0-29.63-14.52-29.63-32.24s13.07-32.24,29.63-32.24,29.92,14.52,29.63,32.24c0,17.72-13.07,32.24-29.63,32.24ZM301.7,300.83c-16.27,0-29.63-14.52-29.63-32.24s13.07-32.24,29.63-32.24,29.63,14.52,29.63,32.24-13.07,32.24-29.63,32.24Z" style="fill:#fdfdfd; stroke-width:0px;"/></svg>