<?xml version="1.0" encoding="UTF-8"?>
<svg id="a" data-name="Layer 1" xmlns="http://www.w3.org/2000/svg" width="500" height="500" viewBox="0 0 500 500">
  <circle cx="250" cy="250" r="245" style="fill: #002145;"/>
  <path d="M345.54,138.84h0c-38.67,29.13-80.27,88.18-95.54,119.88-15.27-31.69-56.87-90.75-95.54-119.88-27.9-21.01-73.12-37.28-73.12,14.47,0,10.33,5.9,86.81,9.37,99.23,12.04,43.16,55.91,54.17,94.94,47.51-68.22,11.65-85.57,50.23-48.09,88.81,71.18,73.27,102.3-18.38,110.27-41.87,1.48-4.34,2.16-6.35,2.16-4.57,0-1.78.69.23,2.16,4.57,7.97,23.48,39.1,115.14,110.27,41.87,37.48-38.58,20.13-77.16-48.09-88.81,39.03,6.66,82.9-4.35,94.94-47.51,3.47-12.42,9.37-88.9,9.37-99.23,0-51.74-45.21-35.48-73.12-14.47Z" style="fill: #fff;"/>
</svg>