<?xml version="1.0" encoding="UTF-8"?><svg id="uuid-e0a66f46-19f2-4c39-9620-3ce2e632110e" xmlns="http://www.w3.org/2000/svg" viewBox="0 0 500 500"><circle cx="250" cy="250" r="245" style="fill:#002145; stroke-width:0px;"/><path d="M250,123.54c41.19,0,46.07.16,62.33.9,15.04.69,23.21,3.2,28.64,5.31,7.2,2.8,12.34,6.14,17.74,11.54,5.4,5.4,8.74,10.54,11.54,17.74,2.11,5.44,4.63,13.6,5.31,28.64.74,16.27.9,21.15.9,62.33s-.16,46.07-.9,62.33c-.69,15.04-3.2,23.21-5.31,28.64-2.8,7.2-6.14,12.34-11.54,17.74-5.4,5.4-10.54,8.74-17.74,11.54-5.44,2.11-13.6,4.63-28.64,5.31-16.26.74-21.14.9-62.33.9s-46.07-.16-62.33-.9c-15.04-.69-23.21-3.2-28.64-5.31-7.2-2.8-12.34-6.14-17.74-11.54-5.4-5.4-8.74-10.54-11.54-17.74-2.11-5.44-4.63-13.6-5.31-28.64-.74-16.27-.9-21.15-.9-62.33s.16-46.07.9-62.33c.69-15.04,3.2-23.21,5.31-28.64,2.8-7.2,6.14-12.34,11.54-17.74,5.4-5.4,10.54-8.74,17.74-11.54,5.44-2.11,13.6-4.63,28.64-5.31,16.27-.74,21.15-.9,62.33-.9M250,95.74c-41.89,0-47.15.18-63.6.93-16.42.75-27.63,3.36-37.45,7.17-10.14,3.94-18.75,9.22-27.32,17.79-8.58,8.58-13.85,17.18-17.79,27.32-3.81,9.81-6.42,21.03-7.17,37.45-.75,16.45-.93,21.71-.93,63.6s.18,47.15.93,63.6c.75,16.42,3.36,27.63,7.17,37.45,3.94,10.14,9.22,18.75,17.79,27.32,8.58,8.58,17.18,13.85,27.32,17.79,9.81,3.81,21.03,6.42,37.45,7.17,16.45.75,21.71.93,63.6.93s47.15-.18,63.6-.93c16.42-.75,27.63-3.36,37.45-7.17,10.14-3.94,18.75-9.22,27.32-17.79,8.58-8.58,13.85-17.18,17.79-27.32,3.81-9.81,6.42-21.03,7.17-37.45.75-16.45.93-21.71.93-63.6s-.18-47.15-.93-63.6c-.75-16.42-3.36-27.63-7.17-37.45-3.94-10.14-9.22-18.75-17.79-27.32-8.58-8.58-17.18-13.85-27.32-17.79-9.81-3.81-21.03-6.42-37.45-7.17-16.45-.75-21.71-.93-63.6-.93h0Z" style="fill:#fff; stroke-width:0px;"/><path d="M250,170.79c-43.75,0-79.21,35.47-79.21,79.21s35.47,79.21,79.21,79.21,79.21-35.47,79.21-79.21-35.47-79.21-79.21-79.21ZM250,301.42c-28.4,0-51.42-23.02-51.42-51.42s23.02-51.42,51.42-51.42,51.42,23.02,51.42,51.42-23.02,51.42-51.42,51.42Z" style="fill:#fff; stroke-width:0px;"/><circle cx="332.34" cy="167.66" r="18.51" style="fill:#fff; stroke-width:0px;"/></svg>